All The Episodes of Boogiepop Phantom (Ep 1-12) at 480p Video Quality :)

Please seed after you download.

--------------------------------------------------------------------------------

Cover
------
      
http://img189.imageshack.us/img189/5053/boogiepopphantomcursato.jpg

---------------------------------------------------------------------------------

Info
---------------------------------------------------------------------------------

Torrent Statistics
-------------------
        
http://torrent-stats.info/927d/12eb2030c.png

---------------------------------------------------------------------------------

General
--------

Format                                   : MPEG-4
Format profile                           : Base Media
Codec ID                                 : isom
File size                                : 39.3 MiB
Duration                                 : 23mn 55s
Overall bit rate mode                    : Variable
Overall bit rate                         : 230 Kbps
Encoded date                             : UTC 2012-01-10 08:28:00
Tagged date                              : UTC 2012-01-10 08:28:00

Video
---------------------------------------

ID                                       : 1
Format                                   : AVC
Format/Info                              : Advanced Video Codec
Format profile                           : Main@L3.0
Format settings, CABAC                   : Yes
Format settings, ReFrames                : 4 frames
Codec ID                                 : avc1
Codec ID/Info                            : Advanced Video Coding
Duration                                 : 23mn 54s
Bit rate                                 : 162 Kbps
Maximum bit rate                         : 1 002 Kbps
Width                                    : 544 pixels
Height                                   : 408 pixels
Display aspect ratio                     : 4:3
Frame rate mode                          : Constant
Frame rate                               : 23.976 fps
Color space                              : YUV
Chroma subsampling                       : 4:2:0
Bit depth                                : 8 bits
Scan type                                : Progressive
Bits/(Pixel*Frame)                       : 0.030
Stream size                              : 27.7 MiB (70%)
Writing library                          : x264 core 119 r2106 07efeb4

Audio
----------------------------------

ID                                       : 2
Format                                   : AAC
Format/Info                              : Advanced Audio Codec
Format profile                           : LC
Codec ID                                 : 40
Duration                                 : 23mn 55s
Bit rate mode                            : Variable
Bit rate                                 : 64.0 Kbps
Maximum bit rate                         : 71.8 Kbps
Channel(s)                               : 2 channels
Channel positions                        : Front: L R
Sampling rate                            : 48.0 KHz
Compression mode                         : Lossy
Delay relative to video                  : 83ms
Stream size                              : 11.0 MiB (28%)

----------------------------------------------------------------------------------

Screenshots
----------------------------------------------------------------------------------
                       
http://img28.imageshack.us/img28/1694/14136321.png
                       
http://img201.imageshack.us/img201/422/72527969.png
                       
http://img819.imageshack.us/img819/2605/40550860.png
                       
http://img259.imageshack.us/img259/4839/85610043.png
                       
http://img197.imageshack.us/img197/9070/86861548.png
 

----------------------------------------------------------------------------------

Story
----------------------------------------------------------------------------------

A light in the sky, followed by a strange aura and grisly murders. Each character tells there own connection to the event and to a similar murder spree 5 years ago. All of the different stories are slowly tied together by seemingly minute similarities and the story of Boogiepop is unraveled.

----------------------------------------------------------------------------------

Thank you for downloading. 

Enjoy Watching :)		
--------------------------------------------------------------------------------

Facebook and Email
------------------

Facebook/Cursator (Add .com)

Cursator@ymail.com 

Thank you :)		
							
				